<?xml version="1.0" encoding="utf-8"?>
<!-- Generator: Adobe Illustrator 23.0.3, SVG Export Plug-In . SVG Version: 6.00 Build 0)  -->
<svg version="1.1" id="Layer_1" xmlns="http://www.w3.org/2000/svg" xmlns:xlink="http://www.w3.org/1999/xlink" x="0px" y="0px"
	 viewBox="0 0 200 200" style="enable-background:new 0 0 200 200;" xml:space="preserve">
<style type="text/css">
	.st0{fill:#04E762;}
</style>
<g>
	<path class="st0" d="M49.8,15.3C65.3,6,83.5,1.2,101.7,1.6c20.9,0.3,41.6,7.5,58.1,20.2c15.1,11.5,26.7,27.5,33,45.4
		c7.1,19.9,7.5,42.1,1.1,62.2c-4,12.8-10.6,24.7-19.4,34.8c-9.7-10.1-19.4-20.3-29.1-30.4c6.6-8.8,10.5-19.5,11.1-30.4
		c0.6-9.9-1.4-19.9-5.9-28.7c-4.4-8.8-11.1-16.4-19.3-21.8c-8.7-5.8-19-9.1-29.4-9.4c-10.4-0.4-20.8,2.2-29.9,7.3
		c-10.1,5.7-18.3,14.5-23.3,25c-4.6,9.7-6.4,20.8-5,31.4c1.2,9.9,5.2,19.5,11.3,27.4c5.8,7.6,13.6,13.6,22.4,17.4
		c10.1,4.4,21.6,5.7,32.5,3.7c6.4-1.1,12.6-3.4,18.2-6.6c9.8,10.2,19.6,20.5,29.4,30.7c-15.4,11.2-34.1,17.7-53.1,18.5
		c-12.9,0.6-26-1.4-38.2-5.8c-17.6-6.4-33.3-18-44.7-32.9c-11.9-15.5-19-34.7-20-54.3c-0.9-16.9,2.5-34,10.1-49.1
		C20.1,39.4,33.5,25,49.8,15.3z"/>
	<path class="st0" d="M95.1,65.4c10-1.5,20.7,1.7,28.2,8.6c4.2,3.8,7.5,8.6,9.5,13.9c3.6,9.7,2.6,20.9-2.6,29.8
		c-4.7,8-12.7,14.1-21.8,16.2c-7,1.7-14.6,1.2-21.3-1.5c-8.8-3.4-16-10.6-19.5-19.3c-4-9.8-3.2-21.5,2.1-30.6
		C75,73.3,84.6,66.8,95.1,65.4z"/>
</g>
</svg>
